HIERARCHY
ROOT Pelvis
{
	OFFSET 0.000000 0.000000 0.000000
	CHANNELS 6 Xposition Yposition Zposition Xrotation Yrotation Zrotation
	JOINT LeftUpLeg_virtual
	{
		OFFSET 0.000000 0.000000 0.000000
		CHANNELS 3 Xrotation Yrotation Zrotation
		JOINT LeftUpLeg
		{
			OFFSET 18.735201 -5.666702 -4.541200
			CHANNELS 3 Xrotation Yrotation Zrotation
			JOINT LeftLeg
			{
				OFFSET -0.021200 -31.938179 0.493100
				CHANNELS 3 Xrotation Yrotation Zrotation
				JOINT LeftFoot
				{
					OFFSET 0.021200 -31.938179 -4.336299
					CHANNELS 3 Xrotation Yrotation Zrotation
					JOINT LeftToeBase
					{
						OFFSET 0.943001 -26.722000 15.023500
						CHANNELS 3 Xrotation Yrotation Zrotation
						End Site
						{
							OFFSET 0 0 0
						}
					}
				}
			}
		}
	}
	JOINT RightUpLeg_virtual
	{
		OFFSET 0.000000 0.000000 0.000000
		CHANNELS 3 Xrotation Yrotation Zrotation
		JOINT RightUpLeg
		{
			OFFSET -18.735201 -5.666702 -4.541200
			CHANNELS 3 Xrotation Yrotation Zrotation
			JOINT RightLeg
			{
				OFFSET 0.018946 -31.938133 0.493100
				CHANNELS 3 Xrotation Yrotation Zrotation
				JOINT RightFoot
				{
					OFFSET -0.018946 -31.938126 -4.336299
					CHANNELS 3 Xrotation Yrotation Zrotation
					JOINT RightToeBase
					{
						OFFSET -0.943001 -26.722004 15.023500
						CHANNELS 3 Xrotation Yrotation Zrotation
						End Site
						{
							OFFSET 0 0 0
						}
					}
				}
			}
		}
	}
	JOINT Hips_virtual
	{
		OFFSET 0.000000 0.000000 0.000000
		CHANNELS 3 Xrotation Yrotation Zrotation
		JOINT Hips
		{
			OFFSET -0.000000 -0.000000 -0.000000
			CHANNELS 3 Xrotation Yrotation Zrotation
			JOINT Spine
			{
				OFFSET 0.000000 10.199997 -0.299500
				CHANNELS 3 Xrotation Yrotation Zrotation
				JOINT Spine1
				{
					OFFSET 0.000000 11.900002 -1.516600
					CHANNELS 3 Xrotation Yrotation Zrotation
					JOINT Spine2
					{
						OFFSET 0.000000 13.600006 -2.842500
						CHANNELS 3 Xrotation Yrotation Zrotation
						JOINT Neck_virtual
						{
							OFFSET 0.000000 0.000000 0.000000
							CHANNELS 3 Xrotation Yrotation Zrotation
							JOINT Neck
							{
								OFFSET 0.000000 9.624100 -2.890100
								CHANNELS 3 Xrotation Yrotation Zrotation
								JOINT Head
								{
									OFFSET 0.000000 14.068802 -1.351900
									CHANNELS 3 Xrotation Yrotation Zrotation
									End Site
									{
										OFFSET 0 0 0
									}
								}
							}
						}
						JOINT LeftShoulder_virtual
						{
							OFFSET 0.000000 0.000000 0.000000
							CHANNELS 3 Xrotation Yrotation Zrotation
							JOINT LeftShoulder
							{
								OFFSET 15.263000 10.923401 -0.547700
								CHANNELS 3 Xrotation Yrotation Zrotation
								JOINT LeftArm
								{
									OFFSET 25.438599 -2.830597 -13.032500
									CHANNELS 3 Xrotation Yrotation Zrotation
									JOINT LeftForeArm
									{
										OFFSET 29.960503 0.000000 0.000000
										CHANNELS 3 Xrotation Yrotation Zrotation
										JOINT LeftHand
										{
											OFFSET 27.849251 0.000000 0.000000
											CHANNELS 3 Xrotation Yrotation Zrotation
											End Site
											{
												OFFSET 0 0 0
											}
										}
									}
								}
							}
						}
						JOINT RightShoulder_virtual
						{
							OFFSET 0.000000 0.000000 0.000000
							CHANNELS 3 Xrotation Yrotation Zrotation
							JOINT RightShoulder
							{
								OFFSET -15.263000 10.923401 -0.547700
								CHANNELS 3 Xrotation Yrotation Zrotation
								JOINT RightArm
								{
									OFFSET -25.438599 -2.830597 -13.032500
									CHANNELS 3 Xrotation Yrotation Zrotation
									JOINT RightForeArm
									{
										OFFSET -29.960503 0.000000 0.000000
										CHANNELS 3 Xrotation Yrotation Zrotation
										JOINT RightHand
										{
											OFFSET -27.849251 0.000000 0.000000
											CHANNELS 3 Xrotation Yrotation Zrotation
											End Site
											{
												OFFSET 0 0 0
											}
										}
									}
								}
							}
						}
					}
				}
			}
		}
	}
}
MOTION
Frames: 13
Frame Time: 0.03333333
-6.915668 85.450966 -0.099133 0.000000 0.000000 0.000000 47.580283 -71.848413 49.478327 -55.309929 5.015901 -2.409818 46.567427 -9.502180 1.828647 -4.988603 1.221704 -0.021635 0.000000 0.000000 0.000000 45.127739 -71.394151 47.225584 -47.357151 -3.949618 -22.803416 52.409162 -2.066684 -1.087974 -21.805459 -2.765611 16.673979 0.000000 0.000000 0.000000 47.007998 -71.479555 49.390939 -0.051355 -0.012526 -1.123134 6.320838 4.169614 5.676055 11.931536 6.865374 5.539572 0.000000 0.000000 0.000000 11.489115 6.488639 5.751135 0.954790 0.100022 1.245917 0.000000 0.000000 0.000000 11.742769 6.612645 5.599331 -0.755397 -2.933236 -12.116608 -43.903056 -30.273447 -90.610758 -0.430444 -30.475109 0.215010 0.000000 0.000000 0.000000 12.066467 6.869267 5.588622 -0.369207 12.247748 21.210263 -45.053591 21.757221 72.044282 -1.697004 17.151384 0.669184 0.000000 0.000000 0.000000 
-6.927775 85.462456 -0.035728 0.000000 0.000000 0.000000 47.354299 -71.792726 49.245551 -55.334931 5.066685 -2.409174 46.579663 -9.443380 1.779979 -4.961799 1.264623 0.050826 0.000000 0.000000 0.000000 44.895158 -71.317024 46.981275 -47.373878 -3.960692 -22.828437 52.372009 -2.064527 -1.091445 -21.649492 -2.726096 16.681723 0.000000 0.000000 0.000000 46.802840 -71.420911 49.172417 -0.037155 -0.017250 -1.120083 6.336738 4.188211 5.674756 11.930388 6.861979 5.535529 0.000000 0.000000 0.000000 11.485352 6.484661 5.742647 0.966411 0.110437 1.236035 0.000000 0.000000 0.000000 11.747253 6.614815 5.596607 -0.747939 -2.906253 -12.132554 -43.840027 -30.283788 -90.598156 -0.414101 -30.497478 0.219595 0.000000 0.000000 0.000000 12.063772 6.868089 5.584603 -0.363627 12.203890 21.226691 -44.920307 21.815629 72.032596 -1.663452 17.191675 0.680482 0.000000 0.000000 0.000000 
-6.931865 85.491539 0.062126 0.000000 0.000000 0.000000 47.132632 -71.696612 48.990696 -55.340805 5.103563 -2.458897 46.552490 -9.373784 1.720833 -4.987430 1.311332 0.164934 0.000000 0.000000 0.000000 44.656535 -71.211067 46.716213 -47.380957 -3.958589 -22.910623 52.325273 -2.038123 -1.089907 -21.455511 -2.676312 16.749874 0.000000 0.000000 0.000000 46.563319 -71.335384 48.901822 -0.030691 -0.013278 -1.112762 6.350481 4.210183 5.670407 11.927395 6.864374 5.520211 0.000000 0.000000 0.000000 11.482071 6.489906 5.721725 1.004692 0.125284 1.223880 0.000000 0.000000 0.000000 11.752490 6.621840 5.579764 -0.741669 -2.856326 -12.125835 -43.722674 -30.350711 -90.594461 -0.421198 -30.580748 0.203173 0.000000 0.000000 0.000000 12.053605 6.873521 5.569322 -0.366348 12.135684 21.259643 -44.592447 22.030044 71.946023 -1.592350 17.246293 0.687499 0.000000 0.000000 0.000000 
-6.927667 85.525711 0.181000 0.000000 0.000000 0.000000 46.919025 -71.568908 48.719114 -55.329419 5.106375 -2.552891 46.482118 -9.302796 1.664970 -5.038798 1.349572 0.313026 0.000000 0.000000 0.000000 44.407605 -71.076000 46.416347 -47.343914 -3.925483 -23.023919 52.219952 -1.982594 -1.079806 -21.301852 -2.630766 16.930640 0.000000 0.000000 0.000000 46.287338 -71.222487 48.576080 -0.034704 -0.017046 -1.082724 6.363750 4.235094 5.666964 11.926284 6.870974 5.492202 0.000000 0.000000 0.000000 11.483556 6.501066 5.686204 1.065213 0.143045 1.210173 0.000000 0.000000 0.000000 11.764810 6.631480 5.546875 -0.738827 -2.798432 -12.101914 -43.593614 -30.479579 -90.592911 -0.447198 -30.690663 0.170276 0.000000 0.000000 0.000000 12.043401 6.884719 5.541059 -0.373795 12.043639 21.297524 -44.167596 22.355563 71.824391 -1.487896 17.310344 0.684589 0.000000 0.000000 0.000000 
-6.906653 85.558075 0.322380 0.000000 0.000000 0.000000 46.729576 -71.448806 48.452843 -55.320052 5.081215 -2.671110 46.389754 -9.219863 1.611234 -5.048681 1.382332 0.500729 0.000000 0.000000 0.000000 44.186485 -70.937669 46.119360 -47.266364 -3.865450 -23.139831 52.043726 -1.913415 -1.057964 -21.240497 -2.606641 17.265774 0.000000 0.000000 0.000000 46.008868 -71.095644 48.223943 -0.049401 -0.037459 -1.039156 6.374432 4.256722 5.668681 11.930214 6.877726 5.449678 0.000000 0.000000 0.000000 11.493791 6.510859 5.632903 1.142846 0.163103 1.196400 0.000000 0.000000 0.000000 11.788500 6.640095 5.495240 -0.740088 -2.743742 -12.068524 -43.481609 -30.690584 -90.575193 -0.485747 -30.804020 0.128359 0.000000 0.000000 0.000000 12.039300 6.897964 5.499025 -0.380291 11.929773 21.327544 -43.730450 22.743063 71.720606 -1.353365 17.365377 0.671484 0.000000 0.000000 0.000000 
-6.861038 85.575729 0.482170 0.000000 0.000000 0.000000 46.546827 -71.344304 48.170626 -55.351921 5.042616 -2.794729 46.330570 -9.112187 1.560929 -4.980100 1.415731 0.749574 0.000000 0.000000 0.000000 44.037290 -70.829519 45.868583 -47.184412 -3.784987 -23.231365 51.846071 -1.855832 -1.025455 -21.256433 -2.621482 17.718967 0.000000 0.000000 0.000000 45.722342 -70.962032 47.839652 -0.047391 -0.057684 -1.019078 6.380380 4.273070 5.678221 11.943160 6.878792 5.393657 0.000000 0.000000 0.000000 11.518173 6.513869 5.561146 1.232391 0.183352 1.184541 0.000000 0.000000 0.000000 11.825825 6.643442 5.424584 -0.746709 -2.706760 -12.040473 -43.409090 -30.992557 -90.513421 -0.531585 -30.916011 0.080965 0.000000 0.000000 0.000000 12.044288 6.906701 5.444165 -0.383408 11.807715 21.342833 -43.367695 23.149396 71.656143 -1.203714 17.405376 0.649794 0.000000 0.000000 0.000000 
-6.789909 85.572159 0.668739 0.000000 0.000000 0.000000 46.369563 -71.277354 47.879916 -55.439457 5.016423 -2.914931 46.355521 -8.992764 1.511975 -4.837245 1.450932 1.060421 0.000000 0.000000 0.000000 43.947363 -70.758998 45.651530 -47.122254 -3.704154 -23.296631 51.678147 -1.843472 -0.982808 -21.263747 -2.701041 18.154984 0.000000 0.000000 0.000000 45.465018 -70.841923 47.458921 -0.031923 -0.077306 -1.007377 6.373686 4.276321 5.695333 11.964850 6.868297 5.327173 0.000000 0.000000 0.000000 11.556736 6.506007 5.476858 1.330723 0.203203 1.177786 0.000000 0.000000 0.000000 11.872702 6.636391 5.341446 -0.758099 -2.689523 -12.026956 -43.343796 -31.398769 -90.385997 -0.576637 -31.046939 0.029287 0.000000 0.000000 0.000000 12.057155 6.906748 5.380041 -0.381443 11.686997 21.341061 -43.110737 23.556003 71.634341 -1.048398 17.457882 0.624837 0.000000 0.000000 0.000000 
-6.695424 85.559875 0.890869 0.000000 0.000000 0.000000 46.213910 -71.249952 47.593093 -55.561830 5.011058 -3.012857 46.465603 -8.873184 1.451060 -4.709351 1.474413 1.415126 0.000000 0.000000 0.000000 43.883836 -70.732442 45.445432 -47.077830 -3.619261 -23.327203 51.597015 -1.891621 -0.956254 -21.230803 -2.852424 18.465995 0.000000 0.000000 0.000000 45.318363 -70.761996 47.158792 -0.032961 -0.092925 -1.011097 6.354215 4.259827 5.717545 11.991043 6.842940 5.257868 0.000000 0.000000 0.000000 11.603048 6.487751 5.390276 1.436956 0.222226 1.179025 0.000000 0.000000 0.000000 11.922486 6.617675 5.253337 -0.770691 -2.682700 -12.023897 -43.236023 -31.905600 -90.170709 -0.613643 -31.213985 -0.026250 0.000000 0.000000 0.000000 12.075484 6.895338 5.311649 -0.373699 11.582581 21.330126 -42.933678 23.964542 71.652817 -0.892942 17.537786 0.604740 0.000000 0.000000 0.000000 
-6.580307 85.546417 1.128048 0.000000 0.000000 0.000000 46.071566 -71.219441 47.297974 -55.699489 5.016960 -3.095256 46.608822 -8.753074 1.355586 -4.688545 1.471089 1.784536 0.000000 0.000000 0.000000 43.804602 -70.709615 45.200157 -47.015447 -3.496470 -23.323371 51.549494 -1.946577 -0.974972 -21.157136 -3.044321 18.695239 0.000000 0.000000 0.000000 45.255631 -70.709342 46.924400 -0.026098 -0.084616 -1.032662 6.335823 4.228065 5.734938 12.023208 6.804136 5.190866 0.000000 0.000000 0.000000 11.650786 6.459885 5.309868 1.549179 0.240990 1.188232 0.000000 0.000000 0.000000 11.970208 6.585773 5.168486 -0.783782 -2.681521 -12.027621 -43.055798 -32.492514 -89.869437 -0.638742 -31.429597 -0.087717 0.000000 0.000000 0.000000 12.098218 6.870794 5.244440 -0.356850 11.496558 21.317353 -42.816441 24.378581 71.711372 -0.746102 17.655062 0.591763 0.000000 0.000000 0.000000 
-6.447818 85.532539 1.398300 0.000000 0.000000 0.000000 45.950091 -71.173781 47.006089 -55.836475 5.045745 -3.184873 46.752355 -8.623300 1.205334 -4.794607 1.459647 2.164233 0.000000 0.000000 0.000000 43.629619 -70.644141 44.838201 -46.913475 -3.315434 -23.325156 51.437420 -1.941176 -1.035314 -21.064338 -3.226575 18.995405 0.000000 0.000000 0.000000 45.218653 -70.673934 46.708614 -0.029721 -0.093149 -1.041689 6.330762 4.177256 5.737760 12.059038 6.754069 5.128118 0.000000 0.000000 0.000000 11.694619 6.423591 5.241521 1.666699 0.261023 1.202511 0.000000 0.000000 0.000000 12.011960 6.542530 5.091403 -0.794594 -2.672428 -12.039109 -42.781464 -33.126182 -89.500886 -0.651318 -31.711315 -0.153162 0.000000 0.000000 0.000000 12.120627 6.834828 5.183037 -0.332589 11.425418 21.294875 -42.708340 24.829688 71.799003 -0.615204 17.802740 0.586322 0.000000 0.000000 0.000000 
-6.305839 85.512131 1.705231 0.000000 0.000000 0.000000 45.771666 -71.079456 46.641016 -55.982631 5.111877 -3.292802 46.896960 -8.435128 1.000997 -5.005035 1.468638 2.598842 0.000000 0.000000 0.000000 43.303666 -70.516253 44.327651 -46.819803 -3.106433 -23.403327 51.262779 -1.827876 -1.114529 -20.939086 -3.343712 19.508123 0.000000 0.000000 0.000000 45.153711 -70.638684 46.464787 -0.054791 -0.089634 -1.046010 6.359029 4.111683 5.718117 12.099114 6.698400 5.068801 0.000000 0.000000 0.000000 11.736792 6.381710 5.184388 1.788881 0.282151 1.217361 0.000000 0.000000 0.000000 12.047114 6.491737 5.023045 -0.798676 -2.642492 -12.054365 -42.438458 -33.756055 -89.097782 -0.649522 -32.067806 -0.215395 0.000000 0.000000 0.000000 12.148316 6.791846 5.128857 -0.303375 11.372098 21.261892 -42.541212 25.326391 71.865830 -0.503619 17.981332 0.593153 0.000000 0.000000 0.000000 
-6.164177 85.466362 2.054012 0.000000 0.000000 0.000000 45.524287 -70.967250 46.219750 -56.147229 5.215480 -3.449672 47.085316 -8.164284 0.770067 -5.269520 1.506063 3.116570 0.000000 0.000000 0.000000 42.937653 -70.357676 43.793735 -46.819103 -2.917696 -23.601980 51.117938 -1.601039 -1.173846 -20.726224 -3.386023 20.191349 0.000000 0.000000 0.000000 45.015444 -70.615632 46.172762 -0.065876 -0.100976 -1.033050 6.432397 4.033552 5.676316 12.145408 6.642924 5.010976 0.000000 0.000000 0.000000 11.779208 6.338603 5.137317 1.917097 0.304118 1.229400 0.000000 0.000000 0.000000 12.075945 6.438318 4.963485 -0.794767 -2.590132 -12.070666 -42.076158 -34.346084 -88.714110 -0.636557 -32.497115 -0.266851 0.000000 0.000000 0.000000 12.181229 6.746422 5.082307 -0.271795 11.331980 21.224087 -42.281364 25.867794 71.856138 -0.419124 18.200793 0.616157 0.000000 0.000000 0.000000 
-6.038141 85.385178 2.457722 0.000000 0.000000 0.000000 45.197882 -70.890369 45.755922 -56.352230 5.356952 -3.635069 47.398890 -7.840019 0.546902 -5.529500 1.548554 3.696457 0.000000 0.000000 0.000000 42.543472 -70.243913 43.275252 -46.918260 -2.794330 -23.951716 51.069461 -1.338206 -1.186685 -20.376497 -3.391010 20.802581 0.000000 0.000000 0.000000 44.797735 -70.639176 45.827731 -0.104328 -0.101142 -1.030079 6.552060 3.946429 5.619800 12.193892 6.594527 4.956381 0.000000 0.000000 0.000000 11.823574 6.301962 5.098487 2.052566 0.324429 1.236182 0.000000 0.000000 0.000000 12.104466 6.393010 4.912935 -0.778422 -2.513182 -12.082711 -41.732005 -34.878368 -88.388624 -0.610738 -32.952268 -0.297648 0.000000 0.000000 0.000000 12.214052 6.707501 5.041256 -0.243609 11.303259 21.184337 -41.906192 26.444715 71.729533 -0.361685 18.473987 0.659099 0.000000 0.000000 0.000000 
